<?xml version="1.0" encoding="UTF-8"?>
<svg width="48px" height="48px" viewBox="0 0 48 48" version="1.1" xmlns="http://www.w3.org/2000/svg" xmlns:xlink="http://www.w3.org/1999/xlink">
    <!-- Generator: Sketch 53.2 (72643) - https://sketchapp.com -->
    <title>5-Icons/Process Management/z-Features/Social Collaboration</title>
    <desc>Created with Sketch.</desc>
    <g id="5-Icons/Process-Management/z-Features/Social-Collaboration" stroke="none" stroke-width="1" fill="none" fill-rule="evenodd">
        <g id="Social-Collaboration">
            <path d="M33.2964845,16.4251672 C37.2878281,20.2022781 38.9322948,26.8181861 37.4778921,32.6707201 C36.0234894,38.5312059 31.4784811,43.6283178 25.7930889,46.1569941 C20.0994331,48.6856705 13.2653933,48.6379596 8.59643023,45.8548253 C3.92746715,43.0796427 1.42358076,37.5690366 0.448469888,32.1140932 C-0.534904637,26.651198 0.0104963601,21.2360137 2.96888358,17.6895054 C5.91900716,14.1350452 11.282117,12.4492609 17.1327822,12.0755257 C22.9751838,11.7017905 29.3051408,12.6480562 33.2964845,16.4251672 Z" id="Path-Copy-6" fill="#FFE5B2"></path>
            <path d="M38.4117647,29.9699968 C41.3669557,27.4453504 43.2403922,23.6914575 43.2403922,19.5 M35.9335556,8.53743816 C34.5218576,7.49228162 32.9802421,6.84939524 31.3337136,6.67633812 C29.113969,6.44303357 26.903198,7.08461412 24.7957441,8.45190184 M17.2352941,19.5 C17.2352941,23.9375632 19.3351909,27.8846692 22.5955008,30.4018344" id="Shape" stroke="#CC4E00" stroke-width="3" stroke-linecap="round" stroke-linejoin="round"></path>
            <circle id="Oval" stroke="#CC4E00" stroke-width="3" stroke-linecap="round" stroke-linejoin="round" cx="30.7882353" cy="23.9470588" r="2.54117647"></circle>
            <path d="M35.8705882,33.4764706 C35.8705882,30.786519 33.5951413,28.6058824 30.7882353,28.6058824 C27.9813293,28.6058824 25.7058824,30.786519 25.7058824,33.4764706" id="Path" stroke="#CC4E00" stroke-width="3" stroke-linecap="round" stroke-linejoin="round"></path>
            <path d="M25.7058824,34.1117647 L35.8705882,34.1117647" id="Line" stroke="#CC4E00" stroke-width="3" stroke-linecap="round" stroke-linejoin="round"></path>
            <circle id="Oval" stroke="#CC4E00" stroke-width="3" stroke-linecap="round" stroke-linejoin="round" cx="18.9294118" cy="5.31176471" r="2.54117647"></circle>
            <path d="M24.0117647,14.8411765 C24.0117647,12.1512249 21.7363178,9.97058824 18.9294118,9.97058824 C16.1225057,9.97058824 13.8470588,12.1512249 13.8470588,14.8411765" id="Path" stroke="#CC4E00" stroke-width="3" stroke-linecap="round" stroke-linejoin="round"></path>
            <path d="M13.8470588,15.4764706 L24.0117647,15.4764706" id="Line" stroke="#CC4E00" stroke-width="3" stroke-linecap="round" stroke-linejoin="round"></path>
            <circle id="Oval" stroke="#CC4E00" stroke-width="3" stroke-linecap="round" stroke-linejoin="round" cx="40.9529412" cy="5.31176471" r="2.54117647"></circle>
            <path d="M46.0352941,14.8411765 C46.0352941,12.1512249 43.7598472,9.97058824 40.9529412,9.97058824 C38.1460352,9.97058824 35.8705882,12.1512249 35.8705882,14.8411765" id="Path" stroke="#CC4E00" stroke-width="3" stroke-linecap="round" stroke-linejoin="round"></path>
            <path d="M35.8705882,15.4764706 L46.0352941,15.4764706" id="Line" stroke="#CC4E00" stroke-width="3" stroke-linecap="round" stroke-linejoin="round"></path>
        </g>
    </g>
</svg>