<?xml version="1.0" encoding="UTF-8"?>
<svg width="48px" height="48px" viewBox="0 0 48 48" version="1.1" xmlns="http://www.w3.org/2000/svg" xmlns:xlink="http://www.w3.org/1999/xlink">
    <!-- Generator: Sketch 53.2 (72643) - https://sketchapp.com -->
    <title>5-Icons/Process Management/z-Features/Task Management</title>
    <desc>Created with Sketch.</desc>
    <g id="5-Icons/Process-Management/z-Features/Task-Management" stroke="none" stroke-width="1" fill="none" fill-rule="evenodd">
        <g id="Task-Management">
            <path d="M33.2964845,16.4251672 C37.2878281,20.2022781 38.9322948,26.8181861 37.4778921,32.6707201 C36.0234894,38.5312059 31.4784811,43.6283178 25.7930889,46.1569941 C20.0994331,48.6856705 13.2653933,48.6379596 8.59643023,45.8548253 C3.92746715,43.0796427 1.42358076,37.5690366 0.448469888,32.1140932 C-0.534904637,26.651198 0.0104963601,21.2360137 2.96888358,17.6895054 C5.91900716,14.1350452 11.282117,12.4492609 17.1327822,12.0755257 C22.9751838,11.7017905 29.3051408,12.6480562 33.2964845,16.4251672 Z" id="Path-Copy-6" fill="#FFB6B2"></path>
            <g id="notes" transform="translate(16.500000, 1.500000)" stroke="#A01308" stroke-linecap="round" stroke-linejoin="round" stroke-width="3">
                <path d="M7.36363636,16.3636364 L22.0909091,16.3636364" id="Path"></path>
                <path d="M7.36363636,22.0909091 L22.0909091,22.0909091" id="Path"></path>
                <path d="M7.36363636,27.8181818 L13.0909091,27.8181818" id="Path"></path>
                <polyline id="Path" points="26.1818182 5.72727273 29.4545455 5.72727273 29.4545455 36 0 36 0 5.72727273 3.27272727 5.72727273"></polyline>
                <path d="M18.8181818,4.09090909 C18.8181818,1.83190909 16.9862727,0 14.7272727,0 C12.4682727,0 10.6363636,1.83190909 10.6363636,4.09090909 L7.36363636,4.09090909 L7.36363636,9 L22.0909091,9 L22.0909091,4.09090909 L18.8181818,4.09090909 Z" id="Path"></path>
            </g>
        </g>
    </g>
</svg>